<svg
  width="133"
  height="12"
  viewBox="0 0 133 12"
  fill="none"
  xmlns="http://www.w3.org/2000/svg">
  <g clip-path="url(#clip0_31_288)">
    <path
      d="M117.057 6.00848C117.057 5.03535 117.21 4.18104 117.516 3.44553C117.823 2.69872 118.314 2.07637 118.991 1.57849C119.667 1.0693 120.545 0.684572 121.623 0.424317C122.711 0.164063 124.038 0.0339355 125.602 0.0339355C126.448 0.0339355 127.288 0.0791973 128.123 0.169721C128.969 0.248928 129.793 0.362082 130.597 0.509183C131.4 0.644968 132.156 0.803384 132.864 0.98443L132.277 3.85289C131.664 3.7171 130.982 3.58698 130.232 3.46251C129.481 3.32672 128.694 3.21357 127.87 3.12304C127.045 3.03252 126.21 2.98726 125.364 2.98726C124.339 2.98726 123.494 3.04949 122.828 3.17396C122.172 3.28712 121.654 3.46816 121.274 3.7171C120.904 3.96604 120.645 4.27722 120.497 4.65063C120.349 5.02403 120.275 5.47665 120.275 6.00848C120.275 6.52898 120.349 6.9816 120.497 7.36633C120.645 7.73974 120.904 8.05091 121.274 8.29985C121.654 8.54879 122.172 8.73549 122.828 8.85996C123.494 8.97312 124.339 9.02969 125.364 9.02969C125.851 9.02969 126.332 9.01272 126.807 8.97877C127.293 8.94483 127.769 8.89957 128.234 8.84299C128.699 8.78641 129.133 8.72983 129.534 8.67326V5.85572H132.864V11.0325C132.156 11.2136 131.4 11.3776 130.597 11.5247C129.793 11.6605 128.969 11.768 128.123 11.8472C127.288 11.9378 126.448 11.983 125.602 11.983C124.038 11.983 122.711 11.8529 121.623 11.5926C120.545 11.3324 119.667 10.9533 118.991 10.4554C118.314 9.94624 117.823 9.32389 117.516 8.58839C117.21 7.84157 117.057 6.9816 117.057 6.00848Z"
      fill="#84E7CB" />
    <path
      d="M114.326 9.53896H102.863V7.14574H114.326V9.53896ZM109.649 0.203735L109.586 0.780822L103.164 11.7794H99.2959L106.335 0.203735H109.649ZM113.771 11.7794L107.35 0.780822L107.318 0.203735H110.632L117.671 11.7794H113.771Z"
      fill="#84E7CB" />
    <path
      d="M81.157 11.7794H77.9385V0.203735H81.8546L88.3233 8.9449L94.7761 0.203735H98.6288V11.7794H95.4103V4.29426L89.9087 11.7794H86.6585L81.157 4.29426V11.7794Z"
      fill="#84E7CB" />
    <path
      d="M64.1648 6.00848C64.1648 6.5403 64.2388 6.99292 64.3867 7.36633C64.5347 7.73974 64.7884 8.05657 65.1478 8.31682C65.5177 8.56576 66.0303 8.75246 66.6857 8.87693C67.3516 8.99009 68.1919 9.04667 69.2066 9.04667C70.0416 9.04667 70.8713 9.0014 71.6957 8.91088C72.5202 8.82036 73.3129 8.7072 74.0739 8.57142C74.835 8.43563 75.522 8.30551 76.135 8.18104L76.7058 11.0495C75.9765 11.2305 75.1891 11.3946 74.3435 11.5417C73.4979 11.6775 72.6312 11.785 71.7433 11.8642C70.8554 11.9547 69.9729 12 69.0956 12C67.6158 12 66.358 11.8699 65.3222 11.6096C64.2863 11.3494 63.446 10.9703 62.8013 10.4724C62.1565 9.96321 61.6862 9.33521 61.3902 8.58839C61.0943 7.84157 60.9463 6.9816 60.9463 6.00848C60.9463 5.04667 61.0943 4.19235 61.3902 3.44553C61.6862 2.69872 62.1565 2.07637 62.8013 1.57849C63.446 1.0693 64.2863 0.684572 65.3222 0.424317C66.358 0.164063 67.6158 0.0339355 69.0956 0.0339355C69.9729 0.0339355 70.8554 0.0735393 71.7433 0.152747C72.6312 0.231955 73.4979 0.34511 74.3435 0.49221C75.1891 0.639311 75.9765 0.803384 76.7058 0.98443L76.135 3.85289C75.522 3.7171 74.835 3.58698 74.0739 3.46251C73.3129 3.32672 72.5202 3.21357 71.6957 3.12304C70.8713 3.03252 70.0416 2.98726 69.2066 2.98726C68.1919 2.98726 67.3516 3.04949 66.6857 3.17396C66.0303 3.28712 65.5177 3.46816 65.1478 3.7171C64.7884 3.96604 64.5347 4.28287 64.3867 4.6676C64.2388 5.04101 64.1648 5.48797 64.1648 6.00848Z"
      fill="#84E7CB" />
    <path
      d="M59.5579 11.7794H56.3394V0.203735H59.5579V11.7794Z"
      fill="#84E7CB" />
    <path
      d="M54.8854 8.48656C54.8854 9.0976 54.7744 9.62376 54.5524 10.0651C54.3304 10.5064 53.9605 10.8741 53.4426 11.1683C52.9247 11.4512 52.2165 11.6605 51.3181 11.7963C50.4302 11.9321 49.3204 12 47.9886 12C47.0902 12 46.1653 11.9547 45.214 11.8642C44.2627 11.785 43.3537 11.6775 42.487 11.5417C41.6309 11.4059 40.8751 11.2532 40.2198 11.0835L40.6796 8.31683C41.2292 8.45262 41.8106 8.57709 42.4236 8.69024C43.0367 8.80339 43.6814 8.91089 44.3579 9.01273C45.0449 9.10325 45.7584 9.1768 46.4983 9.23338C47.2487 9.27864 48.0309 9.30127 48.8447 9.30127C49.4789 9.30127 49.9916 9.2843 50.3826 9.25035C50.7737 9.21641 51.075 9.16549 51.2864 9.0976C51.4978 9.0297 51.6404 8.93918 51.7144 8.82602C51.799 8.70156 51.8413 8.55446 51.8413 8.38472C51.8413 8.13578 51.7937 7.9604 51.6986 7.85856C51.614 7.7454 51.4819 7.66619 51.3022 7.62093C51.1225 7.56436 50.89 7.52475 50.6046 7.50212L44.6274 7.14569C43.5176 7.07779 42.6244 6.90806 41.948 6.63649C41.2715 6.35361 40.7853 5.96888 40.4893 5.48232C40.1934 4.98444 40.0454 4.37341 40.0454 3.64922C40.0454 2.77793 40.2885 2.07638 40.7747 1.54455C41.2715 1.01273 42.0431 0.622347 43.0895 0.373408C44.1465 0.124469 45.51 0 47.18 0C47.6662 0 48.2106 0.0226305 48.813 0.0678916C49.4155 0.101838 50.0391 0.152758 50.6839 0.22065C51.3392 0.288543 51.9787 0.373409 52.6023 0.475247C53.2365 0.577086 53.8231 0.69024 54.3622 0.81471L53.839 3.4116C53.3845 3.30976 52.8665 3.21924 52.2852 3.14003C51.7144 3.0495 51.1067 2.97595 50.4619 2.91938C49.8172 2.85149 49.1513 2.80057 48.4642 2.76662C47.7878 2.72136 47.1113 2.69873 46.4348 2.69873C45.7161 2.69873 45.1295 2.71004 44.675 2.73267C44.231 2.7553 43.8928 2.80057 43.6603 2.86846C43.4383 2.93635 43.285 3.02687 43.2005 3.14003C43.1265 3.24187 43.0895 3.38331 43.0895 3.56436C43.0895 3.77935 43.1371 3.94342 43.2322 4.05658C43.3273 4.15842 43.4753 4.23197 43.6761 4.27723C43.8875 4.31117 44.157 4.34512 44.4847 4.37907L50.3826 4.75247C51.1648 4.79774 51.836 4.91089 52.3962 5.09194C52.9669 5.26167 53.4373 5.49929 53.8072 5.80481C54.1772 6.09901 54.4467 6.47242 54.6158 6.92504C54.7955 7.36634 54.8854 7.88685 54.8854 8.48656Z"
      fill="#84E7CB" />
    <path
      d="M35.5231 5.65211V0.203735H38.7416V6.38195C38.7416 7.69454 38.4192 8.76385 37.7744 9.58987C37.1403 10.4159 36.2365 11.0213 35.0633 11.406C33.9006 11.7794 32.5213 11.9661 30.9252 11.9661C29.3398 11.9661 27.9604 11.7794 26.7872 11.406C25.6139 11.0213 24.7049 10.4159 24.0602 9.58987C23.426 8.76385 23.1089 7.69454 23.1089 6.38195V0.203735H26.3274V5.65211C26.3274 6.47813 26.4859 7.14009 26.803 7.63796C27.1307 8.12453 27.6327 8.48096 28.3092 8.70727C28.9962 8.92227 29.8683 9.02976 30.9252 9.02976C32.0033 9.02976 32.8754 8.92227 33.5412 8.70727C34.2177 8.48096 34.7145 8.12453 35.0316 7.63796C35.3592 7.14009 35.5231 6.47813 35.5231 5.65211Z"
      fill="#84E7CB" />
    <path
      d="M4.08226 11.7794H0.86377V0.203735H4.77987L11.2486 8.9449L17.7014 0.203735H21.5541V11.7794H18.3356V4.29426L12.834 11.7794H9.58383L4.08226 4.29426V11.7794Z"
      fill="#84E7CB" />
  </g>
  <defs>
    <clipPath id="clip0_31_288">
      <rect
        width="132"
        height="12"
        fill="white"
        transform="translate(0.86377)" />
    </clipPath>
  </defs>
</svg>
